<?xml version="1.0" standalone="no"?>
<!DOCTYPE svg PUBLIC "-//W3C//DTD SVG 20010904//EN"
 "http://www.w3.org/TR/2001/REC-SVG-20010904/DTD/svg10.dtd">
<svg version="1.0" xmlns="http://www.w3.org/2000/svg"
 width="106.000000pt" height="66.000000pt" viewBox="0 0 106.000000 66.000000"
 preserveAspectRatio="xMidYMid meet">

<g transform="translate(0.000000,66.000000) scale(0.100000,-0.100000)"
fill="#000000" stroke="none">
<path d="M0 590 l0 -50 503 2 502 3 0 45 0 45 -502 3 -503 2 0 -50z"/>
<path d="M160 426 c34 -12 36 -17 64 -114 l29 -102 33 0 c19 0 34 2 34 4 0 2
22 54 50 115 l49 111 -34 0 c-25 0 -35 -5 -40 -21 -4 -12 -18 -46 -32 -77
l-26 -57 -16 75 -16 75 -65 2 c-63 2 -64 2 -30 -11z"/>
<path d="M441 403 c-16 -60 -41 -173 -41 -184 0 -5 13 -9 29 -9 28 0 29 2 50
98 13 53 25 105 27 115 4 13 -1 17 -25 17 -27 0 -31 -5 -40 -37z"/>
<path d="M555 415 c-41 -41 -30 -77 36 -110 34 -18 37 -30 9 -45 -14 -7 -32
-8 -56 -1 -34 9 -35 9 -32 -17 3 -24 7 -27 49 -30 58 -4 96 11 110 42 18 38 4
70 -41 95 -35 19 -39 25 -28 38 9 11 23 13 50 9 36 -6 38 -5 38 19 0 24 -3 25
-55 25 -46 0 -60 -4 -80 -25z"/>
<path d="M782 428 c-5 -7 -31 -59 -55 -115 l-46 -103 34 0 c25 0 35 5 40 20 9
29 81 29 90 0 4 -14 15 -20 34 -20 l28 0 -26 115 -25 115 -32 0 c-17 0 -36 -6
-42 -12z m42 -100 c7 -36 5 -38 -19 -38 -29 0 -29 0 -10 47 18 42 20 41 29 -9z"/>
</g>
</svg>
