<?xml version="1.0" standalone="no"?>
<!DOCTYPE svg PUBLIC "-//W3C//DTD SVG 20010904//EN"
 "http://www.w3.org/TR/2001/REC-SVG-20010904/DTD/svg10.dtd">
<svg version="1.0" xmlns="http://www.w3.org/2000/svg"
 width="2067.000000pt" height="2079.000000pt" viewBox="0 0 2067.000000 2079.000000"
 preserveAspectRatio="xMidYMid meet">

<g transform="translate(0.000000,2079.000000) scale(0.100000,-0.100000)"
fill="#000000" stroke="none">
<path d="M0 10395 l0 -10395 10335 0 10335 0 0 1645 0 1645 -1267 0 -1268 1
-300 336 c-165 185 -453 505 -639 711 l-339 374 -41 -48 c-62 -73 -662 -738
-970 -1076 l-271 -297 -4162 0 -4163 -1 0 3335 0 3335 -437 0 c-555 1 -2194
18 -2200 23 -4 5 1051 2398 2512 5700 l778 1757 1614 -2 1614 -3 547 -1230
547 -1230 6 235 c4 129 10 688 14 1243 l8 1007 1990 -2 1989 -3 30 -85 c474
-1350 635 -1777 659 -1753 20 20 212 542 502 1363 149 421 155 434 183 442 84
22 436 30 1702 35 l1362 6 0 1663 0 1664 -10335 0 -10335 0 0 -10395z"/>
<path d="M8491 16599 c-33 -88 -742 -1695 -1955 -4433 -334 -752 -605 -1370
-603 -1373 5 -4 1740 16 1743 20 1 1 67 162 147 357 80 195 185 452 234 570
l89 215 1355 3 1354 2 189 -457 c104 -252 211 -510 238 -574 l49 -116 877 -7
c482 -3 1233 -9 1668 -12 l791 -7 6 1784 c6 1679 15 2191 36 2212 16 16 196
-461 962 -2538 l526 -1430 699 -2 699 -3 329 898 c181 493 509 1387 728 1986
219 599 402 1095 407 1103 8 15 21 -1748 21 -2873 0 -341 3 -736 7 -877 l6
-257 789 0 788 0 0 2915 0 2915 -1224 0 -1224 0 -15 -42 c-130 -376 -908
-2530 -1078 -2985 -186 -498 -210 -558 -221 -538 -23 41 -285 742 -550 1475
-132 365 -695 1934 -735 2048 l-15 42 -1237 0 -1238 0 -6 -542 c-4 -298 -7
-922 -7 -1387 0 -1428 -13 -3862 -20 -3854 -4 4 -338 760 -743 1678 -404 919
-974 2213 -1267 2876 l-532 1206 -146 6 c-81 4 -544 10 -1029 13 l-882 7 -10
-24z m1038 -1507 c32 -62 248 -572 466 -1097 266 -641 299 -725 290 -733 -3
-4 -336 -7 -738 -7 -752 0 -809 3 -823 39 -15 39 750 1836 782 1836 2 0 12
-17 23 -38z"/>
<path d="M8170 7040 l0 -2920 2478 2 2477 3 3 668 2 667 -1690 0 -1690 0 0
455 0 455 1645 0 1645 0 0 650 0 650 -1645 0 -1645 0 0 475 0 475 1684 0 1684
0 6 108 c3 59 8 289 11 512 3 223 8 469 11 546 l6 142 692 -732 c1404 -1484
2037 -2158 2034 -2166 -2 -5 -163 -177 -359 -382 -406 -427 -1153 -1219 -1760
-1868 -486 -520 -577 -619 -590 -642 -9 -17 41 -18 985 -18 l994 0 553 608
c699 766 882 964 1043 1129 109 112 132 131 144 120 40 -32 594 -635 1382
-1500 l325 -357 1017 0 c560 0 1018 3 1018 6 0 20 -427 481 -1495 1615 -742
788 -1205 1287 -1205 1301 0 29 645 724 1550 1673 737 772 1120 1178 1133
1202 5 8 6 17 3 20 -11 11 -653 22 -1306 23 l-676 0 -404 -442 c-566 -618
-1117 -1214 -1233 -1333 l-97 -100 -53 57 c-28 31 -412 453 -852 937 l-799
881 -3513 0 -3513 0 0 -2920z"/>
<path d="M20526 8582 c-732 -776 -1394 -1480 -1417 -1506 l-28 -33 477 -505
c262 -278 614 -652 782 -830 l305 -325 6 216 c8 280 8 2599 0 2888 l-6 221
-119 -126z"/>
</g>
</svg>
