<?xml version="1.0" standalone="no"?>
<!DOCTYPE svg PUBLIC "-//W3C//DTD SVG 20010904//EN"
 "http://www.w3.org/TR/2001/REC-SVG-20010904/DTD/svg10.dtd">
<svg version="1.0" xmlns="http://www.w3.org/2000/svg"
 width="103.000000pt" height="63.000000pt" viewBox="0 0 103.000000 63.000000"
 preserveAspectRatio="xMidYMid meet">

<g transform="translate(0.000000,63.000000) scale(0.100000,-0.100000)"
fill="#000000" stroke="none">
<path d="M203 584 c-60 -22 -128 -86 -160 -151 -22 -47 -27 -70 -27 -128 2
-255 304 -389 494 -218 70 63 100 127 100 214 0 36 -5 81 -12 100 -16 48 -67
121 -89 126 -10 3 -17 9 -14 13 3 5 -16 19 -42 31 -61 30 -186 36 -250 13z"/>
</g>
</svg>
