<?xml version="1.0" standalone="no"?>
<!DOCTYPE svg PUBLIC "-//W3C//DTD SVG 20010904//EN"
 "http://www.w3.org/TR/2001/REC-SVG-20010904/DTD/svg10.dtd">
<svg version="1.0" xmlns="http://www.w3.org/2000/svg"
 width="238.000000pt" height="63.000000pt" viewBox="0 0 238.000000 63.000000"
 preserveAspectRatio="xMidYMid meet">

<g transform="translate(0.000000,63.000000) scale(0.100000,-0.100000)"
fill="#000000" stroke="none">
<path d="M2010 538 c-1 -2 -2 -56 -3 -121 -2 -111 -1 -117 18 -117 19 0 20 6
17 120 -3 96 -6 120 -18 120 -8 0 -14 -1 -14 -2z"/>
<path d="M2227 533 c-4 -3 -2 -12 4 -19 7 -8 10 -51 7 -113 l-3 -100 29 -5
c45 -9 53 -7 26 7 -20 10 -26 21 -28 58 -5 74 51 95 78 29 10 -24 9 -35 -3
-59 -18 -37 -15 -39 13 -9 23 25 26 75 7 102 -14 19 -51 24 -79 12 -16 -7 -18
-2 -18 48 0 40 -4 56 -13 56 -8 0 -17 -3 -20 -7z"/>
<path d="M870 516 c15 -15 13 -203 -2 -209 -7 -3 18 -6 55 -6 43 -1 79 5 97
14 33 17 60 61 60 97 0 28 -33 84 -57 96 -26 13 -102 24 -83 12 8 -5 23 -10
33 -10 10 0 29 -12 42 -26 20 -21 25 -38 25 -76 0 -62 -31 -98 -85 -98 l-35 0
0 104 0 104 -30 4 c-21 3 -27 1 -20 -6z"/>
<path d="M1117 523 c-12 -11 -8 -23 8 -23 8 0 15 7 15 15 0 16 -12 20 -23 8z"/>
<path d="M1833 510 c-89 -54 -74 -181 25 -211 47 -14 106 0 111 26 3 16 1 16
-24 -3 -38 -30 -62 -27 -101 12 -30 30 -34 40 -34 84 0 44 4 54 31 76 40 34
83 34 113 1 l23 -25 -4 24 c-8 39 -87 49 -140 16z"/>
<path d="M1256 443 c-4 -4 -21 -7 -38 -8 l-30 0 -2 -68 c-1 -61 1 -67 19 -67
18 0 20 6 17 59 -3 53 -1 60 18 66 12 4 27 1 35 -5 19 -16 20 -106 3 -113 -7
-3 -2 -6 12 -6 24 -1 25 0 22 61 -2 43 -8 67 -20 76 -18 14 -26 15 -36 5z"/>
<path d="M1373 438 c-29 -14 -47 -67 -34 -101 19 -48 73 -58 102 -19 11 14 11
15 -1 5 -31 -28 -80 0 -80 45 0 19 5 22 45 22 51 0 60 18 23 44 -26 18 -26 18
-55 4z m47 -13 c17 -21 9 -27 -31 -23 -31 3 -32 4 -15 21 21 21 30 21 46 2z"/>
<path d="M1532 435 c-15 -11 -21 -12 -24 -3 -3 7 -12 9 -23 4 -14 -5 -16 -9
-7 -18 16 -16 16 -105 0 -111 -7 -3 -2 -6 12 -6 24 -1 25 2 25 56 0 55 1 58
24 58 14 0 26 6 28 12 7 19 -12 23 -35 8z"/>
<path d="M1600 430 c-24 -24 -15 -52 23 -71 30 -16 38 -31 25 -46 -16 -19 -35
-16 -52 9 -13 18 -16 19 -16 6 0 -23 35 -41 63 -32 49 15 49 55 1 83 -22 13
-34 27 -32 38 4 23 23 27 42 8 13 -14 16 -14 16 -2 0 14 -20 27 -41 27 -5 0
-18 -9 -29 -20z"/>
<path d="M1105 370 c0 -63 2 -70 20 -70 18 0 20 6 17 70 -3 57 -7 70 -20 70
-14 0 -17 -11 -17 -70z"/>
<path d="M2068 433 c7 -3 12 -26 12 -63 0 -70 16 -90 57 -71 14 7 29 8 32 3 3
-4 17 -5 31 -1 14 4 19 7 13 8 -9 1 -13 21 -13 66 0 64 0 65 -27 64 -16 0 -22
-3 -15 -6 7 -3 12 -25 12 -58 0 -45 -3 -55 -20 -60 -34 -11 -50 12 -50 71 0
50 -2 54 -22 53 -13 0 -17 -3 -10 -6z"/>
<path d="M1065 219 c-4 -6 -5 -12 -2 -15 2 -3 7 2 10 11 7 17 1 20 -8 4z"/>
<path d="M1621 212 c-13 -25 -14 -43 -2 -23 7 11 13 3 22 -30 7 -24 12 -47 11
-51 -1 -5 6 -8 17 -8 18 0 18 2 -3 59 -26 73 -31 78 -45 53z"/>
<path d="M1680 215 c0 -8 2 -15 4 -15 2 0 6 7 10 15 3 8 1 15 -4 15 -6 0 -10
-7 -10 -15z"/>
<path d="M1940 219 c30 -12 40 -26 40 -60 0 -31 -17 -49 -46 -49 -27 0 -44 43
-33 84 8 27 7 28 -12 10 -40 -36 -8 -104 49 -104 37 0 62 28 62 68 0 34 -30
62 -65 61 -17 0 -17 -2 5 -10z"/>
<path d="M2202 213 c-5 -10 -15 -36 -22 -58 -7 -22 -18 -43 -24 -47 -6 -5 -2
-8 11 -8 14 0 21 5 17 13 -2 7 2 30 9 52 l14 40 13 -45 c8 -25 13 -48 12 -52
-1 -5 6 -8 17 -8 18 0 18 2 -3 59 -26 71 -31 78 -44 54z"/>
<path d="M868 160 c-2 -48 0 -60 12 -60 12 0 14 12 12 60 -2 33 -7 60 -12 60
-5 0 -10 -27 -12 -60z"/>
<path d="M928 160 c-3 -55 -1 -60 17 -59 11 0 14 3 8 6 -8 3 -13 23 -13 51 l0
46 50 -55 49 -54 -1 65 c-1 60 -2 61 -7 20 l-6 -44 -33 42 c-47 59 -59 55 -64
-18z"/>
<path d="M1108 160 c-3 -54 -1 -60 17 -60 18 0 20 6 17 60 -3 41 -8 60 -17 60
-9 0 -14 -19 -17 -60z"/>
<path d="M1208 160 l-3 -60 43 0 c23 0 42 4 42 8 0 5 -13 7 -30 4 -27 -4 -30
-2 -30 23 0 22 4 26 20 22 12 -3 20 0 20 8 0 8 -8 11 -20 8 -16 -4 -20 0 -20
21 0 53 -18 24 -22 -34z"/>
<path d="M1315 160 c0 -47 3 -60 15 -60 12 0 14 12 12 60 -5 81 -27 81 -27 0z"/>
<path d="M1371 204 c11 -14 10 -18 -5 -29 -17 -13 -17 -15 4 -44 12 -17 28
-31 36 -31 11 0 9 7 -7 30 -18 24 -20 32 -9 44 15 19 6 46 -16 46 -14 0 -14
-2 -3 -16z"/>
<path d="M1440 218 c0 -2 24 -29 54 -62 l54 -58 4 61 c1 34 0 61 -4 61 -5 0
-8 -18 -8 -40 l0 -40 -36 40 c-20 22 -43 40 -50 40 -8 0 -14 -1 -14 -2z"/>
<path d="M1728 160 c-3 -58 -2 -60 22 -60 18 0 21 3 11 9 -9 6 -12 24 -10 60
3 34 0 51 -8 51 -7 0 -13 -23 -15 -60z"/>
<path d="M1825 160 c0 -47 3 -60 15 -60 12 0 14 12 12 60 -5 81 -27 81 -27 0z"/>
<path d="M2028 175 c3 -26 -1 -52 -8 -60 -10 -12 -9 -15 6 -15 17 0 19 7 16
48 l-3 47 45 -50 44 -49 4 62 c1 34 0 62 -4 62 -5 0 -8 -17 -8 -37 l0 -37 -38
37 c-21 20 -42 37 -47 37 -6 0 -9 -20 -7 -45z"/>
<path d="M2298 160 l-3 -61 39 3 c22 2 41 9 42 16 1 7 0 8 -3 2 -2 -5 -16 -10
-29 -10 -22 0 -24 4 -24 55 0 74 -17 70 -22 -5z"/>
<path d="M1595 143 c-3 -15 -12 -31 -18 -35 -8 -5 -5 -8 8 -8 16 0 20 7 22 35
2 42 -2 45 -12 8z"/>
<path d="M1435 110 c-3 -5 3 -10 15 -10 12 0 18 5 15 10 -3 6 -10 10 -15 10
-5 0 -12 -4 -15 -10z"/>
</g>
</svg>
