<?xml version="1.0" standalone="no"?>
<!DOCTYPE svg PUBLIC "-//W3C//DTD SVG 20010904//EN"
 "http://www.w3.org/TR/2001/REC-SVG-20010904/DTD/svg10.dtd">
<svg version="1.0" xmlns="http://www.w3.org/2000/svg"
 width="430.000000pt" height="261.000000pt" viewBox="0 0 430.000000 261.000000"
 preserveAspectRatio="xMidYMid meet">

<g transform="translate(0.000000,261.000000) scale(0.100000,-0.100000)"
fill="#000000" stroke="none">
<path d="M2885 2523 c12 -187 25 -498 25 -591 0 -119 9 -202 23 -202 6 0 7 33
3 93 -3 50 -10 198 -16 327 -17 387 -22 460 -31 460 -6 0 -7 -36 -4 -87z"/>
<path d="M2210 1978 c-80 -23 -110 -42 -149 -94 -28 -38 -43 -70 -50 -110 -11
-58 -14 -192 -4 -164 32 89 142 239 196 267 37 19 103 10 167 -22 51 -26 74
-49 85 -85 4 -14 20 -43 35 -65 16 -22 31 -50 35 -62 5 -18 0 -16 -28 12 -30
30 -42 35 -80 35 -45 0 -45 0 -61 -46 -19 -55 -12 -94 15 -94 11 0 30 -7 43
-15 23 -16 83 -17 92 -3 14 23 24 1 24 -54 0 -34 2 -59 4 -57 3 2 12 60 22
129 17 125 17 126 -5 191 -44 132 -115 205 -227 235 -62 16 -65 16 -114 2z
m238 -390 c18 -18 15 -28 -8 -28 -13 0 -20 7 -20 20 0 23 10 26 28 8z m89 -30
c-3 -8 -6 -5 -6 6 -1 11 2 17 5 13 3 -3 4 -12 1 -19z"/>
<path d="M1978 1833 c-8 -10 -35 -52 -61 -94 -51 -83 -72 -159 -43 -159 9 0
16 -7 16 -15 0 -8 5 -15 11 -15 5 0 7 -5 4 -11 -5 -6 -11 -5 -18 5 -7 9 -17
12 -24 8 -16 -10 6 -222 23 -222 7 0 15 -22 19 -52 3 -29 15 -96 25 -148 11
-52 24 -144 31 -205 6 -63 21 -140 35 -180 49 -141 72 -215 65 -215 -22 0
-123 89 -115 102 3 4 -6 8 -20 8 -60 0 -72 15 -85 108 -8 59 -19 94 -31 107
-25 27 -50 98 -50 142 0 35 0 35 -36 29 -19 -4 -50 -16 -67 -27 -18 -10 -40
-22 -49 -25 -10 -4 -15 -10 -12 -15 3 -5 -2 -6 -10 -3 -8 3 -27 -3 -42 -13
-34 -22 -134 -54 -134 -43 0 5 -14 24 -31 42 -38 40 -95 158 -109 225 -14 63
-21 73 -48 66 -29 -7 -28 -27 3 -47 14 -9 25 -22 25 -29 -1 -20 -30 -53 -38
-42 -10 15 -39 17 -47 5 -4 -7 2 -14 14 -17 12 -3 21 -13 21 -24 0 -16 -8 -19
-53 -19 -29 0 -58 5 -65 12 -17 17 -16 123 2 137 7 6 24 10 37 9 15 -2 24 3
27 15 3 14 0 16 -22 7 -34 -12 -39 0 -22 49 13 39 13 41 -7 41 -32 0 -80 -43
-111 -100 -17 -31 -80 -104 -157 -181 -117 -118 -128 -131 -134 -174 -5 -30
-14 -49 -26 -56 -28 -14 -35 13 -15 55 9 19 16 45 16 59 0 13 7 30 15 37 9 7
14 19 11 26 -3 7 20 28 55 49 71 45 76 65 17 66 -63 1 -158 8 -198 15 -19 4
-57 8 -85 10 -148 8 -174 14 -192 44 -18 30 -39 45 -47 32 -3 -4 0 -39 5 -77
5 -39 12 -120 14 -182 2 -62 6 -117 10 -122 3 -6 -1 -25 -9 -43 -8 -18 -16
-61 -18 -95 -4 -55 -8 -66 -39 -97 -33 -35 -36 -36 -111 -36 -68 0 -77 2 -83
20 -3 11 -3 24 0 30 3 5 1 10 -4 10 -8 0 -11 -98 -11 -310 l0 -310 2150 0
2150 0 0 569 c0 560 0 569 -20 574 -27 7 -26 47 3 97 19 35 20 42 8 62 -10 16
-10 23 -2 26 7 2 11 29 11 68 0 49 -3 64 -15 64 -7 0 -18 -6 -22 -14 -12 -21
-82 -47 -109 -40 -22 6 -24 3 -24 -28 0 -19 8 -43 18 -54 9 -10 16 -30 14 -44
-5 -34 -50 -80 -79 -80 -19 0 -23 -5 -23 -31 0 -28 -3 -31 -22 -25 -13 3 -27
6 -32 6 -4 0 -6 11 -3 25 2 14 2 23 -1 21 -9 -10 -43 16 -52 40 -5 13 -16 24
-25 24 -8 0 -15 7 -15 15 0 24 -20 17 -30 -10 -9 -25 -34 -33 -45 -16 -8 14
-67 42 -73 36 -3 -3 0 -11 6 -17 23 -23 14 -63 -18 -81 -35 -21 -37 -28 -10
-52 24 -22 26 -41 3 -53 -23 -13 -56 3 -77 39 -9 16 -24 29 -32 29 -17 0 -19
-36 -1 -43 16 -7 -13 -29 -30 -22 -7 2 -13 0 -13 -5 0 -15 -28 -12 -33 3 -5
15 -49 -31 -44 -47 7 -20 37 -19 37 1 1 17 2 17 15 -1 18 -24 20 -58 3 -55 -7
1 -21 -1 -30 -5 -33 -15 -50 1 -43 35 l7 32 -51 -7 c-34 -4 -51 -3 -51 4 0 6
4 9 9 5 19 -11 23 17 5 36 -23 26 -34 24 -34 -6 0 -21 -5 -25 -30 -25 -16 0
-33 7 -38 16 -8 14 -10 14 -21 0 -8 -9 -20 -16 -27 -16 -7 0 -19 -10 -26 -22
-17 -30 -39 -31 -74 -3 -26 21 -27 24 -15 53 16 37 8 64 -16 61 -35 -3 -43 1
-43 22 0 17 -4 20 -25 15 -29 -7 -75 36 -75 71 0 20 -5 23 -36 23 l-36 0 5
-52 c3 -29 9 -65 13 -80 6 -25 4 -28 -21 -28 -24 0 -27 3 -23 25 6 27 -1 24
-43 -17 -21 -20 -114 -33 -165 -23 -35 6 -36 5 -30 -17 49 -174 45 -350 -9
-408 -13 -14 -36 -47 -52 -73 -24 -42 -36 -52 -83 -68 -30 -10 -63 -19 -75
-19 -11 0 -29 -7 -39 -15 -27 -21 -53 -20 -36 0 15 19 9 19 -76 4 -73 -13
-163 1 -187 29 -16 19 -56 135 -62 181 -6 45 -25 111 -45 156 -9 22 -21 79
-24 127 -4 48 -15 117 -25 155 -10 37 -22 91 -25 119 -6 50 -6 51 17 47 40 -8
43 39 15 205 -9 56 -13 63 -30 59 -15 -4 -18 -2 -12 11 4 9 10 43 14 74 5 36
21 82 44 123 37 67 40 78 14 48z m2278 -539 c-3 -9 -6 -18 -6 -20 0 -2 -7 -4
-15 -4 -18 0 -19 12 -3 28 17 17 31 15 24 -4z m-356 -79 c0 -8 -4 -15 -10 -15
-5 0 -10 7 -10 15 0 8 5 15 10 15 6 0 10 -7 10 -15z m215 -45 c3 -5 -3 -10
-14 -10 -12 0 -21 5 -21 10 0 6 6 10 14 10 8 0 18 -4 21 -10z m-1100 -68 c-11
-11 -25 15 -19 33 7 17 8 16 16 -5 5 -13 6 -25 3 -28z m991 23 c21 -21 -1 -52
-44 -60 -44 -8 -66 10 -29 24 14 6 31 19 37 31 13 24 17 25 36 5z m-142 -38
c8 -14 8 -20 -4 -27 -27 -18 -50 -12 -50 13 0 41 32 49 54 14z m-774 -12 c7
-8 19 -15 26 -15 8 0 14 -3 14 -7 0 -14 -34 -43 -52 -43 -29 0 -21 -17 11 -23
41 -8 57 -56 35 -103 -12 -26 -21 -33 -34 -29 -10 3 -21 1 -25 -5 -15 -24 -21
-5 -24 70 -4 141 13 198 49 155z m954 -50 c-4 -8 -15 -15 -25 -15 -10 0 -19 7
-19 15 0 9 9 15 25 15 18 0 23 -4 19 -15z m-829 -45 c3 -5 1 -10 -4 -10 -6 0
-11 5 -11 10 0 6 2 10 4 10 3 0 8 -4 11 -10z m67 -33 c15 -12 15 -14 -3 -25
-22 -14 -34 -10 -49 19 -9 16 -7 19 12 19 13 0 31 -6 40 -13z m48 -3 c0 -8 -4
-12 -10 -9 -5 3 -10 10 -10 16 0 5 5 9 10 9 6 0 10 -7 10 -16z m430 -29 c0 -8
0 -18 1 -22 0 -4 -3 -9 -8 -10 -4 -2 -8 8 -8 22 0 14 3 25 8 25 4 0 7 -7 7
-15z m-3445 -15 c3 -5 1 -10 -4 -10 -6 0 -11 5 -11 10 0 6 2 10 4 10 3 0 8 -4
11 -10z m73 -43 c22 -17 91 -12 106 8 12 17 14 17 27 1 8 -10 26 -28 40 -42
31 -29 52 -93 43 -129 -6 -25 -6 -25 -50 22 -24 26 -44 53 -44 60 0 11 -9 16
-30 15 -3 0 -19 -3 -37 -6 -34 -8 -60 12 -97 75 l-18 31 23 -12 c13 -7 30 -17
37 -23z m2936 -3 c23 -9 20 -34 -4 -34 -13 0 -20 7 -20 20 0 22 1 23 24 14z
m236 -35 c0 -20 -21 -49 -35 -49 -16 0 -19 18 -9 44 7 18 44 22 44 5z m-485
-54 c0 -32 -21 -46 -27 -18 -6 27 3 54 16 50 6 -2 11 -16 11 -32z m1035 0 c0
-8 -7 -15 -15 -15 -16 0 -20 12 -8 23 11 12 23 8 23 -8z m-772 -38 c2 -10 -3
-17 -12 -17 -10 0 -16 9 -16 21 0 24 23 21 28 -4z m-259 -33 c-16 -20 -28 -17
-22 5 3 12 11 17 19 14 11 -4 12 -9 3 -19z m309 -110 c10 -3 8 -11 -7 -33 -12
-16 -21 -34 -21 -40 0 -6 -4 -11 -9 -11 -5 0 -18 -3 -28 -6 -17 -5 -17 -5 1
10 21 17 15 46 -9 46 -18 0 -20 21 -3 38 10 10 35 9 76 -4z m-208 -24 c0 -16
-7 -20 -30 -20 -36 0 -39 13 -7 28 32 15 37 14 37 -8z m-1883 -79 c-14 -47
-55 -152 -61 -158 -4 -4 -11 -2 -15 5 -6 10 -15 10 -35 2 -33 -12 -46 -6 -46
22 0 20 -1 20 -18 5 -25 -23 -30 -14 -24 41 6 54 14 62 61 62 20 0 44 9 61 24
33 27 85 26 77 -3z"/>
<path d="M4220 1780 c-8 -5 -25 -7 -37 -3 -18 4 -23 1 -23 -15 0 -24 -30 -38
-42 -20 -7 10 -9 10 -6 -2 3 -8 18 -18 34 -22 16 -5 38 -15 49 -23 17 -14 18
-19 7 -48 -7 -17 -15 -47 -18 -66 -4 -31 -3 -33 13 -20 10 7 30 26 46 41 15
16 34 28 42 28 10 0 15 10 15 30 0 17 -4 30 -10 30 -5 0 -10 9 -10 19 0 11 5
23 10 26 18 11 11 35 -10 35 -11 0 -20 5 -20 10 0 13 -20 13 -40 0z"/>
<path d="M2138 1724 c-36 -19 -36 -28 0 -21 19 4 40 -1 61 -14 48 -29 102 -24
82 9 -8 14 -74 42 -98 42 -10 -1 -30 -8 -45 -16z"/>
<path d="M2155 1673 c-26 -7 -55 -33 -55 -50 0 -12 38 -33 59 -33 4 0 13 12
20 26 10 22 14 24 27 13 8 -7 13 -21 11 -30 -4 -15 -2 -16 14 -6 25 15 32 37
13 37 -8 0 -13 4 -9 10 5 7 -47 43 -57 39 -2 -1 -12 -4 -23 -6z"/>
<path d="M2919 1673 c0 -5 0 -55 0 -113 2 -122 19 -240 37 -247 37 -14 81 50
50 72 -19 15 -20 32 -1 65 12 22 11 27 -2 43 -14 15 -14 23 -4 58 8 28 9 45 3
51 -6 6 -8 26 -5 44 l6 34 -42 0 c-22 0 -41 -3 -42 -7z"/>
<path d="M0 1513 c0 -24 5 -43 10 -43 6 0 10 13 10 29 0 19 8 35 22 45 21 15
21 15 -10 13 -31 -2 -32 -4 -32 -44z"/>
<path d="M80 1548 c0 -5 7 -8 15 -8 10 0 15 -10 15 -29 0 -16 7 -34 15 -41 13
-11 15 -8 15 18 0 20 7 36 21 45 19 14 17 15 -30 18 -28 2 -51 1 -51 -3z"/>
<path d="M248 1523 c7 -3 16 -2 19 1 4 3 -2 6 -13 5 -11 0 -14 -3 -6 -6z"/>
<path d="M330 1518 c0 -7 4 -19 9 -27 7 -11 11 -10 20 6 5 11 7 23 4 27 -11
11 -33 7 -33 -6z"/>
<path d="M432 1500 c9 -13 16 -16 23 -9 7 7 5 13 -5 19 -24 15 -31 11 -18 -10z"/>
<path d="M230 1495 c0 -8 2 -15 4 -15 2 0 6 7 10 15 3 8 1 15 -4 15 -6 0 -10
-7 -10 -15z"/>
<path d="M2313 1451 c-21 -13 -31 -27 -30 -41 1 -14 6 -19 17 -14 8 4 26 6 39
5 13 0 30 4 37 10 10 8 15 5 20 -15 3 -14 10 -26 15 -26 5 0 9 -4 9 -9 0 -11
-41 -8 -60 4 -6 4 -59 8 -116 9 -80 2 -104 -1 -104 -11 0 -9 16 -13 53 -13 60
0 97 -8 97 -21 0 -5 -11 -9 -25 -9 -39 0 -34 -36 6 -44 57 -11 88 -7 101 14 7
11 18 20 24 20 7 0 24 6 39 14 15 8 34 12 42 9 11 -4 7 -13 -16 -37 -16 -17
-45 -48 -63 -68 -34 -37 -36 -38 -109 -38 -44 -1 -84 -6 -99 -15 -23 -12 -28
-11 -60 13 l-35 27 22 -30 c38 -55 56 -64 129 -71 66 -6 71 -5 106 23 20 17
57 54 81 84 43 54 85 125 66 113 -6 -3 -9 2 -7 12 2 13 -7 23 -27 32 -16 8
-41 29 -55 47 -16 21 -28 29 -32 22 -5 -8 -11 -7 -20 6 -12 16 -15 16 -45 -2z
m20 -128 c-7 -2 -19 -2 -25 0 -7 3 -2 5 12 5 14 0 19 -2 13 -5z"/>
<path d="M2231 1451 c-7 -5 -9 -11 -5 -14 13 -8 64 4 64 14 0 11 -41 11 -59 0z"/>
<path d="M2581 1394 c-7 -26 -21 -63 -31 -84 -23 -46 -18 -69 29 -118 20 -22
43 -49 51 -61 13 -19 25 -22 75 -23 33 0 79 3 103 7 40 6 42 8 28 24 -10 11
-12 21 -6 31 15 24 12 40 -9 40 -10 0 -23 6 -29 13 -7 8 -35 12 -87 10 -42 -1
-87 2 -100 7 l-25 9 20 45 c27 64 35 113 20 131 -20 24 -27 18 -39 -31z"/>
<path d="M3961 1406 c-7 -8 -10 -19 -7 -24 3 -6 -1 -15 -8 -21 -11 -10 -16 -8
-21 9 -9 27 -41 22 -37 -5 7 -52 14 -65 36 -71 16 -4 23 -11 19 -20 -7 -18 7
-18 34 1 19 13 21 22 17 72 -5 64 -15 81 -33 59z"/>
<path d="M7 1344 c-16 -16 -6 -34 19 -34 14 0 34 -5 46 -11 28 -15 36 -2 12
21 -21 21 -66 35 -77 24z"/>
<path d="M2872 1211 c7 -11 15 -18 20 -15 11 7 -3 34 -18 34 -12 0 -12 -4 -2
-19z"/>
<path d="M70 1199 c-14 -6 -35 -8 -47 -6 -21 4 -23 1 -23 -42 l0 -46 20 25 20
25 18 -21 c42 -50 112 -37 112 21 0 17 -5 36 -12 43 -14 14 -53 15 -88 1z"/>
<path d="M1611 1070 c-7 -23 -16 -30 -35 -30 -14 0 -31 -9 -40 -22 -29 -41 -1
-42 87 -4 46 20 89 36 95 36 6 0 9 6 6 14 -3 8 -15 11 -29 8 -14 -2 -36 3 -49
12 -23 15 -25 14 -35 -14z"/>
<path d="M2 1013 c3 -52 6 -58 26 -61 26 -4 20 -22 -9 -22 -31 0 -26 -56 9
-91 43 -44 49 -54 57 -87 8 -36 20 -41 35 -13 14 26 13 28 -11 34 -38 10 -10
27 35 21 43 -6 64 5 51 26 -4 7 -12 7 -25 0 -13 -7 -21 -6 -30 5 -7 9 -21 13
-31 10 -9 -3 -20 -1 -24 5 -3 5 0 10 7 10 38 0 107 104 108 162 0 22 -6 29
-27 33 -16 4 -36 10 -45 16 -10 5 -43 9 -73 9 l-56 0 3 -57z"/>
<path d="M2540 1051 c0 -5 -3 -16 -6 -25 -3 -9 -2 -16 4 -16 13 0 23 38 11 46
-5 3 -9 1 -9 -5z"/>
<path d="M1496 975 c4 -8 1 -15 -5 -15 -6 0 -11 -4 -11 -10 0 -11 32 -1 42 14
9 13 0 26 -17 26 -9 0 -12 -6 -9 -15z"/>
<path d="M2477 927 c-53 -53 -62 -58 -90 -52 l-32 6 37 -31 c32 -27 37 -36 31
-58 -8 -34 -19 -42 -64 -42 -23 0 -46 -8 -60 -21 -22 -18 -22 -20 -4 -15 11 3
49 8 84 11 37 2 68 10 73 17 5 7 8 31 7 53 -2 47 9 95 22 95 5 0 9 -6 9 -12 1
-7 12 13 26 46 14 32 24 59 22 60 -2 1 -29 -25 -61 -57z"/>
<path d="M1445 930 c-3 -6 1 -7 9 -4 18 7 21 14 7 14 -6 0 -13 -4 -16 -10z"/>
</g>
</svg>
