<?xml version="1.0" standalone="no"?>
<!DOCTYPE svg PUBLIC "-//W3C//DTD SVG 20010904//EN"
 "http://www.w3.org/TR/2001/REC-SVG-20010904/DTD/svg10.dtd">
<svg version="1.0" xmlns="http://www.w3.org/2000/svg"
 width="1200.000000pt" height="1200.000000pt" viewBox="0 0 1200.000000 1200.000000"
 preserveAspectRatio="xMidYMid meet">

<g transform="translate(0.000000,1200.000000) scale(0.100000,-0.100000)"
fill="#000000" stroke="none">
<path d="M2170 8901 c-251 -53 -456 -213 -570 -444 -22 -45 -50 -120 -63 -167
l-22 -85 0 -2220 c0 -2154 1 -2222 19 -2295 70 -272 243 -476 491 -579 157
-66 -144 -62 4000 -59 3582 3 3773 4 3830 21 280 83 489 287 574 562 16 49 25
116 32 225 5 93 8 997 6 2250 l-3 2095 -22 82 c-78 297 -286 513 -584 605
l-73 23 -3765 2 c-3590 2 -3769 1 -3850 -16z m7572 -362 c173 -37 316 -185
348 -360 6 -31 9 -119 8 -195 l-3 -139 -4105 0 -4105 0 -3 145 c-3 163 6 219
48 309 52 109 149 190 280 232 52 17 237 18 3767 18 2695 1 3727 -2 3765 -10z
m353 -1091 c3 -13 4 -165 3 -338 l-3 -315 -4105 0 -4105 0 -3 325 c-1 179 0
330 3 337 3 10 820 13 4104 13 l4101 0 5 -22z m-1 -1044 c11 -30 7 -2556 -5
-2620 -25 -135 -127 -266 -256 -327 l-68 -32 -3776 0 -3775 0 -76 38 c-127 62
-223 185 -248 316 -11 60 -15 2623 -3 2634 3 4 1850 7 4104 7 3727 0 4097 -1
4103 -16z"/>
<path d="M3010 5540 c-99 -26 -240 -97 -315 -157 -87 -71 -168 -173 -219 -277
-68 -139 -81 -195 -81 -371 1 -143 2 -154 33 -245 46 -134 110 -235 212 -334
125 -122 249 -187 420 -222 114 -23 263 -15 383 20 l87 26 88 -26 c201 -59
408 -39 602 57 94 46 116 63 205 153 81 82 109 118 147 191 58 112 87 214 95
331 25 386 -212 728 -587 846 -66 20 -94 23 -235 22 -137 0 -169 -3 -225 -22
-81 -27 -99 -27 -180 -1 -97 32 -326 37 -430 9z m365 -377 c157 -65 160 -65
266 -18 243 110 506 21 620 -210 33 -68 34 -72 34 -195 0 -123 -1 -126 -35
-194 -50 -98 -121 -168 -217 -214 -76 -36 -81 -37 -193 -37 -112 0 -117 1
-196 38 -105 48 -142 48 -248 0 -71 -33 -92 -37 -176 -41 -112 -4 -184 14
-272 71 -144 91 -230 286 -200 448 54 289 355 461 617 352z"/>
<path d="M5995 5235 c-51 -18 -100 -71 -116 -125 -24 -79 19 -173 96 -210 41
-20 63 -20 1711 -20 l1670 0 44 23 c138 69 129 261 -15 328 -38 18 -105 19
-1695 18 -1401 0 -1661 -2 -1695 -14z"/>
<path d="M8335 4584 c-45 -23 -66 -45 -86 -89 -53 -114 16 -234 147 -255 75
-12 848 -13 932 0 76 11 126 44 153 104 36 79 13 169 -57 222 l-37 29 -511 3
c-449 2 -515 0 -541 -14z"/>
</g>
</svg>
