<?xml version="1.0" standalone="no"?>
<!DOCTYPE svg PUBLIC "-//W3C//DTD SVG 20010904//EN"
 "http://www.w3.org/TR/2001/REC-SVG-20010904/DTD/svg10.dtd">
<svg version="1.0" xmlns="http://www.w3.org/2000/svg"
 width="430.000000pt" height="261.000000pt" viewBox="0 0 430.000000 261.000000"
 preserveAspectRatio="xMidYMid meet">

<g transform="translate(0.000000,261.000000) scale(0.100000,-0.100000)"
fill="#000000" stroke="none">
<path d="M0 2398 l1 -213 26 60 c21 48 26 74 25 130 -1 42 2 64 7 56 5 -7 6
-22 4 -32 -4 -15 0 -19 22 -19 22 0 26 -3 19 -17 -4 -10 -8 -30 -8 -45 -1 -14
-4 -24 -8 -22 -9 6 -21 -34 -13 -46 3 -5 13 -10 22 -10 11 0 13 -3 5 -13 -6
-6 -17 -37 -25 -67 l-15 -55 1 63 c0 34 -2 65 -5 68 -3 2 -17 -20 -32 -51 -18
-39 -26 -72 -26 -111 0 -54 1 -56 23 -50 12 3 30 6 40 6 9 0 17 7 17 15 0 11
12 15 45 15 31 0 47 5 54 17 7 14 12 15 24 5 11 -10 21 -10 41 -1 19 9 29 9
40 0 10 -9 16 -9 21 -1 4 7 17 9 30 6 12 -3 25 -2 29 2 14 13 100 8 112 -8 10
-12 14 -12 28 -1 10 8 16 9 16 3 0 -6 -5 -14 -10 -17 -6 -4 -8 -15 -5 -26 4
-11 1 -21 -7 -24 -23 -8 -137 -12 -145 -4 -8 7 -47 13 -68 10 -5 -1 -4 -5 4
-10 21 -13 6 -45 -15 -33 -9 5 -25 7 -35 5 -14 -4 -19 0 -19 16 0 12 -4 20 -9
17 -16 -10 0 -46 20 -46 11 0 19 -5 19 -10 0 -15 -66 -44 -84 -37 -23 9 -20
30 4 24 26 -7 27 19 1 28 -22 7 -52 -4 -67 -24 -15 -19 -54 -22 -54 -4 0 20
-30 28 -41 12 -5 -8 -8 -36 -8 -64 1 -27 3 -42 6 -32 5 19 28 23 38 7 11 -18
25 -10 25 15 0 16 6 25 15 25 8 0 15 -7 15 -15 0 -9 7 -15 16 -13 32 6 26 -22
-5 -28 -17 -4 -31 -11 -31 -16 0 -10 39 -1 54 12 10 10 77 -40 70 -52 -3 -4
-23 -8 -44 -8 -40 0 -70 -20 -70 -46 0 -20 -13 -17 -28 7 -9 14 -19 18 -34 13
-18 -5 -20 -3 -14 19 3 14 9 32 12 41 5 12 2 15 -10 10 -13 -5 -16 -22 -16
-86 0 -71 2 -79 18 -74 9 3 52 10 96 16 43 5 82 13 87 16 5 2 57 11 116 19 95
13 110 12 131 -1 l23 -15 -24 -27 c-90 -104 -132 -142 -155 -142 -14 0 -33 -7
-42 -15 -9 -9 -39 -17 -66 -20 -27 -3 -67 -7 -89 -11 -22 -3 -52 -1 -67 5 -27
10 -28 10 -28 -25 0 -24 5 -36 18 -40 37 -12 61 -27 56 -36 -3 -4 20 -8 50 -8
31 0 56 -4 56 -9 0 -11 -126 -45 -139 -36 -6 3 -11 1 -11 -4 0 -6 9 -11 21
-11 41 0 66 -59 37 -88 -20 -20 -59 -15 -65 8 -7 26 -23 26 -23 1 0 -11 9 -23
20 -26 22 -7 28 -45 8 -45 -9 0 -8 -4 2 -11 12 -9 11 -10 -7 -6 -23 5 -23 4
-23 -98 l0 -103 28 -10 c23 -8 30 -19 39 -56 7 -34 7 -46 -1 -44 -24 3 -66
-15 -66 -29 0 -11 6 -14 22 -9 53 15 78 18 78 9 0 -5 -22 -15 -49 -22 l-49
-12 -1 -91 c-1 -65 2 -94 11 -100 10 -6 10 -8 1 -8 -7 0 -13 -4 -13 -9 0 -5 9
-7 20 -4 15 4 17 9 10 23 -14 27 -13 28 24 28 37 0 56 8 56 23 0 14 -27 11
-43 -5 -8 -8 -19 -11 -26 -6 -10 5 -8 9 4 14 9 3 15 14 13 23 -2 10 3 24 12
31 8 8 9 11 2 7 -15 -8 -15 0 -2 26 10 18 12 18 29 2 11 -12 22 -47 30 -101 7
-46 11 -85 9 -87 -2 -2 -32 -12 -68 -22 l-65 -19 -3 -257 -2 -257 2150 0 2150
0 0 233 c0 156 -4 227 -10 217 -9 -13 -11 -13 -19 -1 -5 8 -7 21 -3 29 4 11 1
14 -12 9 -10 -4 -15 -3 -11 4 4 5 16 7 28 3 20 -6 21 -5 7 11 -14 17 -13 18 3
12 16 -6 17 24 17 588 l-1 595 -22 -13 c-12 -6 -30 -20 -39 -31 -14 -14 -21
-16 -31 -7 -8 6 -27 8 -46 5 -25 -5 -31 -3 -31 11 0 14 -6 17 -33 12 -26 -4
-37 -1 -48 14 -9 12 -20 17 -34 13 -51 -14 -57 -13 -25 5 l35 20 -45 2 c-58 2
-81 5 -113 13 -14 3 -27 2 -29 -4 -2 -6 -21 -3 -47 6 -25 8 -55 13 -68 9 -16
-4 -23 -1 -23 9 0 9 -9 13 -25 11 -16 -1 -25 3 -25 11 0 8 -8 13 -17 12 -10
-1 -29 0 -43 0 -26 2 -18 17 15 25 11 3 -6 4 -37 3 -38 -1 -58 2 -58 9 0 7
-13 12 -30 12 -16 0 -30 -4 -30 -8 0 -4 -12 -1 -27 7 -16 7 -37 14 -48 14 -11
0 -33 7 -49 15 -16 9 -38 13 -50 9 -18 -6 -19 -5 -8 9 11 13 10 15 -7 10 -11
-3 -33 -2 -48 2 l-28 8 28 12 c27 11 25 12 -31 12 -33 1 -69 6 -80 12 -13 7
-22 7 -24 1 -2 -6 -18 -6 -43 2 -22 6 -46 11 -53 9 -8 -1 -20 3 -28 10 -8 6
-27 9 -44 6 -21 -5 -28 -3 -24 7 3 9 -5 12 -31 11 -30 -1 -34 1 -21 11 13 9 3
13 -51 18 -46 5 -69 3 -71 -4 -3 -8 -8 -8 -17 0 -17 14 -107 40 -117 34 -5 -3
-15 -1 -22 5 -8 7 -30 12 -50 13 -24 1 -33 5 -27 12 12 15 -97 20 -114 6 -8
-7 -21 -6 -41 4 -16 8 -48 16 -71 19 -24 2 -46 6 -50 10 -3 4 -20 7 -37 7 -21
0 -27 3 -17 9 15 10 -50 22 -144 26 -62 3 -70 5 -172 30 -34 9 -83 18 -110 20
-97 9 -167 22 -171 34 -2 6 -26 11 -58 11 -30 0 -54 3 -54 8 0 4 -33 8 -73 10
-89 3 -285 40 -440 83 -40 11 -41 29 -1 29 23 0 24 4 25 58 1 31 0 62 -2 67
-1 6 -4 29 -7 53 l-4 42 -379 0 -379 0 0 -59 c0 -44 -4 -60 -16 -65 -26 -10
-27 -8 -22 59 5 51 3 65 -8 65 -8 0 -14 -4 -14 -10 0 -5 -6 -10 -13 -10 -14 0
-47 -60 -47 -85 0 -8 -4 -15 -9 -15 -5 0 -9 6 -8 13 0 6 -1 33 -1 60 -2 40 -5
47 -22 47 -19 0 -20 -7 -20 -212z m110 77 c0 -14 -4 -25 -10 -25 -11 0 -14 33
-3 43 11 11 13 8 13 -18z m340 8 c-1 -21 -19 -30 -62 -32 -53 -1 -74 15 -31
25 15 3 33 7 38 9 19 7 55 5 55 -2z m-218 -49 c-9 -13 -23 -24 -29 -24 -7 0
-13 -9 -13 -19 0 -11 -4 -23 -10 -26 -6 -4 -10 5 -10 20 0 20 -4 26 -15 22
-12 -5 -12 -2 1 26 14 30 19 32 54 29 l39 -4 -17 -24z m78 26 c-19 -13 -30
-13 -30 0 0 6 10 10 23 10 18 0 19 -2 7 -10z m-160 -107 c-1 -27 -1 -27 -15
-9 -19 25 -19 36 0 36 10 0 15 -10 15 -27z m255 17 c3 -5 -7 -16 -22 -24 l-28
-15 33 -1 c29 0 33 -3 30 -22 -4 -31 -61 -57 -109 -51 -42 6 -83 -12 -75 -33
3 -8 1 -14 -4 -14 -5 0 -18 -10 -30 -22 -30 -32 -33 -22 -31 91 l1 63 38 -5
c20 -3 50 -9 65 -12 22 -6 31 -3 43 14 8 11 26 21 39 21 13 0 27 5 30 10 8 12
12 13 20 0z m350 -92 c0 -14 3 -30 8 -34 23 -23 -15 -33 -44 -11 -11 8 -15 22
-11 45 4 27 8 33 26 30 15 -2 21 -10 21 -30z m200 -38 c9 -28 -4 -68 -16 -49
-12 19 -11 69 0 69 5 0 13 -9 16 -20z m-765 -111 c0 -12 -5 -19 -11 -17 -6 2
-10 7 -10 11 1 4 1 14 1 23 0 8 5 12 10 9 6 -3 10 -15 10 -26z m665 -94 c66
-14 164 -34 218 -45 54 -11 140 -36 193 -54 77 -28 100 -33 127 -25 99 28 223
-4 315 -83 42 -35 46 -37 130 -40 71 -2 91 0 111 14 39 30 81 17 81 -23 0 -10
8 -24 18 -31 11 -7 25 -24 32 -38 13 -24 12 -24 -5 -10 -17 14 -18 14 -5 -10
29 -54 41 -160 26 -228 -4 -19 -2 -23 12 -18 16 6 16 5 1 -7 -20 -15 -20 -98
-1 -105 7 -2 9 -8 6 -13 -3 -6 -12 -5 -22 3 -15 11 -15 11 -4 -4 11 -14 10
-18 -5 -28 -17 -11 -17 -11 2 -5 11 3 16 3 12 -1 -4 -4 -2 -13 3 -19 8 -9 6
-15 -6 -19 -16 -6 -16 -8 0 -25 14 -16 15 -19 2 -24 -8 -3 -24 3 -37 14 -25
21 -34 24 -24 8 7 -10 -35 -7 -107 7 -27 5 -38 29 -17 36 11 4 -52 41 -88 52
-16 5 -22 2 -25 -11 -2 -14 -9 -17 -32 -13 l-28 5 32 34 33 34 -32 57 c-32 60
-38 80 -21 80 6 0 10 -6 10 -14 0 -24 20 -30 34 -10 8 10 18 14 26 9 9 -6 11
-4 5 5 -6 10 2 11 40 6 l47 -8 -33 36 c-18 20 -39 36 -48 36 -9 0 -24 7 -34
14 -11 9 -33 12 -62 8 -48 -5 -52 -1 -31 37 12 21 10 29 -20 79 -35 57 -42 82
-23 82 5 0 7 5 4 10 -3 6 -17 10 -30 10 -13 0 -27 5 -31 12 -4 7 -3 8 4 4 7
-4 12 -2 12 3 0 6 10 11 23 12 22 0 22 0 -2 10 -32 13 -57 17 -106 19 -35 2
-37 3 -15 10 23 7 23 8 3 9 -12 1 -25 6 -28 12 -4 6 -13 8 -21 5 -8 -3 -14 0
-14 7 0 7 -3 8 -8 2 -4 -5 -20 -11 -37 -11 -52 -2 -119 -26 -149 -52 -15 -13
-17 -13 -11 -2 4 8 -6 2 -23 -13 -16 -16 -34 -27 -39 -25 -4 1 -18 -18 -31
-43 -17 -35 -23 -64 -24 -130 0 -46 -4 -88 -7 -94 -3 -5 -6 -17 -6 -25 0 -10
-8 -14 -24 -12 -14 2 -21 0 -17 -6 3 -6 -2 -13 -11 -15 -15 -4 -15 -5 2 -6 11
-1 27 -6 35 -11 10 -7 -8 -9 -60 -6 -41 2 -59 1 -40 -2 33 -5 34 -5 10 -12
-24 -8 -24 -8 5 -9 23 -1 27 -3 15 -11 -11 -7 -7 -10 20 -11 l35 -1 -30 -7
c-29 -7 -28 -7 16 -14 47 -6 149 -52 149 -66 0 -4 11 -14 25 -21 13 -7 22 -17
19 -21 -2 -4 0 -10 6 -14 5 -3 10 -10 10 -15 0 -17 -63 25 -109 72 -9 9 -34
20 -56 24 -32 6 -36 9 -20 14 14 5 4 10 -37 15 -31 4 -63 5 -70 2 -7 -3 4 -6
25 -6 25 -1 37 -6 37 -15 0 -8 10 -17 23 -19 16 -3 12 -5 -13 -7 -30 -2 -28
-4 19 -10 29 -5 58 -13 64 -19 8 -8 1 -8 -24 -1 -18 6 -47 9 -64 9 -23 -1 -16
-4 25 -14 44 -10 49 -13 25 -15 -21 -2 -9 -7 40 -17 58 -12 71 -18 71 -34 0
-16 -6 -18 -41 -14 -39 5 -38 4 10 -10 l50 -14 -65 4 -65 4 65 -15 c89 -20 95
-24 25 -19 l-60 5 40 -15 40 -15 -60 4 -60 4 45 -13 45 -14 -65 4 -65 4 55
-13 55 -14 -45 -2 c-39 -2 -42 -3 -20 -11 18 -6 8 -7 -35 -4 l-60 4 40 -14 40
-15 -55 4 -55 4 40 -14 40 -14 -55 4 -55 4 35 -13 c31 -12 32 -14 10 -14 -20
-1 -22 -3 -10 -11 12 -8 11 -10 -6 -10 -17 0 -21 -5 -19 -25 3 -20 -1 -25 -18
-25 -18 0 -19 -2 -7 -10 12 -8 10 -10 -10 -10 -14 0 -20 -4 -14 -8 6 -4 14
-15 17 -25 6 -16 3 -18 -26 -12 -19 4 -27 3 -19 -3 7 -4 15 -38 19 -74 5 -59
8 -67 29 -72 25 -7 30 -19 39 -103 4 -39 2 -53 -7 -53 -9 0 -9 -3 -3 -8 6 -4
16 -36 23 -72 7 -36 22 -95 34 -132 12 -37 20 -69 18 -71 -5 -5 -103 5 -235
24 -61 9 -85 17 -102 35 -27 27 -29 65 -7 103 15 25 15 45 5 192 -14 182 -20
565 -9 582 10 16 -2 36 -18 30 -8 -3 -12 -8 -9 -12 2 -4 -1 -8 -8 -8 -7 0 -20
-4 -29 -8 -15 -6 -18 -2 -18 29 0 30 5 38 31 52 28 14 30 19 25 49 -6 32 14
102 33 115 15 10 -13 219 -59 435 -27 127 -21 145 47 145 27 0 102 -11 168
-25z m-475 -54 c0 -6 -4 -13 -10 -16 -5 -3 -10 1 -10 9 0 9 5 16 10 16 6 0 10
-4 10 -9z m-80 -41 c0 -5 -2 -10 -4 -10 -3 0 -8 5 -11 10 -3 6 -1 10 4 10 6 0
11 -4 11 -10z m-270 -20 c0 -5 -2 -10 -4 -10 -3 0 -8 5 -11 10 -3 6 -1 10 4
10 6 0 11 -4 11 -10z m230 -20 c0 -22 2 -22 -63 -25 -58 -3 -59 16 -2 22 22 2
42 8 43 13 6 18 22 10 22 -10z m1590 -24 c0 -14 -29 -31 -38 -22 -2 3 -2 12 1
21 8 19 37 20 37 1z m1117 -435 l-6 -229 42 22 c23 12 56 23 72 24 17 2 46 7
65 13 20 5 36 5 38 0 2 -5 21 -7 42 -4 33 5 40 3 40 -11 0 -19 -21 -21 -38 -4
-17 17 -28 0 -14 -22 7 -11 9 -20 4 -20 -4 0 -15 13 -25 29 -16 28 -17 28 -59
15 -24 -7 -70 -20 -103 -29 -54 -15 -68 -25 -154 -113 -51 -54 -108 -117 -126
-142 -17 -25 -43 -51 -58 -58 -28 -13 -51 -41 -79 -91 -10 -18 -28 -33 -44
-37 -15 -4 -54 -23 -85 -41 -33 -20 -63 -32 -70 -27 -8 5 -9 3 -4 -6 6 -9 2
-10 -15 -5 -15 5 -20 4 -16 -4 4 -6 -81 -55 -224 -126 -127 -64 -228 -120
-225 -125 3 -6 2 -10 -3 -10 -16 0 -21 27 -9 40 9 9 9 14 1 17 -22 8 -49 31
-43 37 3 3 18 -5 33 -18 30 -25 69 -25 59 0 -3 8 0 14 6 14 6 0 11 -4 11 -10
0 -8 134 57 225 110 35 20 259 139 292 154 13 6 25 16 27 22 3 7 8 176 12 375
4 200 10 375 14 389 6 24 16 27 196 61 104 20 198 37 208 38 18 1 19 -7 13
-228z m168 215 c11 -7 39 -17 63 -21 24 -4 48 -15 56 -27 11 -15 21 -18 48
-13 20 4 52 0 78 -8 25 -9 65 -18 90 -22 93 -15 104 -45 17 -45 -32 0 -62 6
-76 16 -16 12 -35 15 -66 11 -44 -6 -95 9 -95 29 0 5 -13 9 -30 8 -16 -1 -28
2 -25 6 7 11 -34 40 -57 40 -29 0 -70 19 -63 30 9 14 37 12 60 -4z m-2546 -40
c7 -8 19 -12 27 -9 18 7 74 -50 74 -76 0 -27 -3 -27 -39 10 -26 25 -31 27 -32
12 0 -16 -2 -15 -16 5 -16 23 -39 31 -28 10 4 -7 0 -4 -9 6 -8 10 -13 23 -10
28 3 4 -3 11 -13 15 -21 8 -34 24 -27 35 6 10 55 -15 73 -36z m921 15 c0 -5
14 -14 31 -20 24 -8 30 -15 26 -31 -3 -13 0 -20 9 -20 21 0 17 -15 -12 -49
-21 -25 -23 -34 -14 -51 6 -11 15 -20 20 -20 6 0 10 -18 10 -40 0 -32 -4 -40
-19 -40 -39 0 -63 65 -52 143 5 40 4 60 -6 73 -15 21 -17 64 -3 64 6 0 10 -4
10 -9z m2674 -40 c18 -7 18 -8 2 -14 -10 -4 -28 -4 -40 -1 -27 6 -135 -28
-146 -47 -5 -7 -15 -14 -23 -15 -8 -1 -24 -5 -36 -9 -46 -14 -17 8 47 36 37
17 81 37 97 44 33 15 70 17 99 6z m-2958 -57 c13 -30 13 -38 2 -45 -12 -8 -38
-12 -38 -6 0 1 -4 17 -9 35 -12 40 -6 41 14 1 21 -39 29 -31 17 15 -13 47 -5
46 14 0z m599 6 c-3 -6 4 -14 17 -19 20 -9 19 -10 -14 -10 -41 -1 -45 2 -25
24 14 16 31 20 22 5z m-465 -88 c0 -22 -1 -22 -25 -6 -20 13 -28 14 -40 4 -8
-7 -15 -11 -16 -9 -6 30 -7 40 -2 35 10 -9 44 15 37 26 -5 7 -2 8 6 3 9 -5 10
-1 6 16 -5 16 0 12 13 -11 11 -19 20 -45 21 -58z m2304 42 c5 -12 2 -15 -10
-10 -8 3 -20 6 -25 6 -5 0 -9 5 -9 10 0 16 37 11 44 -6z m-1974 -57 c0 -23 -7
-53 -17 -66 l-16 -24 -18 44 c-24 59 -23 69 6 69 14 0 25 5 25 10 0 6 5 10 10
10 6 0 10 -19 10 -43z m2010 39 c0 -3 -4 -8 -10 -11 -5 -3 -10 -1 -10 4 0 6 5
11 10 11 6 0 10 -2 10 -4z m150 -3 c0 -10 -100 -55 -160 -73 -134 -40 -164
-50 -240 -80 -41 -16 -84 -32 -95 -35 -20 -6 -20 -7 -1 -21 25 -18 17 -18 -24
-1 l-31 14 60 22 c65 23 86 41 49 40 -13 0 -39 2 -58 6 -65 11 -184 9 -207 -3
-13 -7 -23 -10 -23 -7 0 3 18 14 40 24 36 16 62 18 203 14 l162 -4 120 40 c66
22 124 46 129 54 6 9 23 15 43 14 18 -1 33 -3 33 -4z m-2675 -43 c17 -7 15 -9
-10 -8 -16 0 -43 4 -60 8 -29 7 -28 8 10 8 22 0 49 -3 60 -8z m134 -69 c30
-58 29 -90 -3 -78 -26 10 -86 117 -66 117 5 0 21 -22 35 -50 14 -27 30 -50 35
-50 15 0 13 5 -20 58 -16 27 -30 55 -30 61 0 23 21 -1 49 -58z m-104 39 c7
-12 -12 -12 -40 0 -18 8 -17 9 7 9 15 1 30 -3 33 -9z m530 -30 c-3 -5 -11 -10
-16 -10 -6 0 -7 5 -4 10 3 6 11 10 16 10 6 0 7 -4 4 -10z m-135 -20 c0 -5 -7
-10 -16 -10 -8 0 -12 5 -9 10 3 6 10 10 16 10 5 0 9 -4 9 -10z m-20 -20 c12
-8 11 -10 -7 -10 -13 0 -23 5 -23 10 0 13 11 13 30 0z m1520 -13 c0 -2 -10
-12 -22 -23 l-23 -19 19 23 c18 21 26 27 26 19z m-972 -48 c-3 -8 -7 -3 -11
10 -4 17 -3 21 5 13 5 -5 8 -16 6 -23z m-951 5 c-3 -3 -12 -4 -19 -1 -8 3 -5
6 6 6 11 1 17 -2 13 -5z m603 -28 c0 -9 -7 -12 -21 -9 -16 4 -17 8 -7 14 19
13 28 11 28 -5z m-499 -33 c13 -17 13 -17 -6 -3 -11 8 -22 16 -24 17 -2 2 0 3
6 3 6 0 17 -8 24 -17z m466 -35 c-3 -8 -6 -5 -6 6 -1 11 2 17 5 13 3 -3 4 -12
1 -19z m-88 -120 c1 -14 -7 -18 -36 -17 -21 1 -30 3 -21 6 10 2 21 17 24 31 4
15 9 31 12 37 6 10 19 -26 21 -57z m180 -55 c2 -1 -5 -1 -16 0 -11 0 -20 7
-20 14 0 10 4 10 16 1 9 -7 18 -13 20 -15z m-131 -5 c1 -7 3 -24 4 -38 2 -14
-2 -24 -8 -23 -6 1 -11 -5 -11 -12 0 -10 4 -12 12 -5 7 5 15 7 18 3 4 -3 7 -1
7 7 0 10 3 10 16 -1 10 -8 7 2 -7 27 -15 25 -18 34 -8 27 9 -7 20 -9 24 -5 5
4 5 1 1 -6 -8 -13 10 -42 26 -42 5 0 7 3 5 8 -3 4 10 8 28 9 35 3 66 -24 64
-57 0 -13 -1 -13 -6 0 -3 8 -15 23 -26 35 l-19 20 11 -22 c6 -13 9 -23 5 -23
-3 0 -1 -7 6 -15 8 -9 8 -15 2 -15 -6 0 -14 9 -17 20 -5 15 -14 19 -41 17 -27
-2 -33 -5 -28 -19 3 -10 0 -18 -6 -18 -6 0 -9 3 -7 8 3 4 -2 13 -11 21 -13 13
-14 11 -8 -15 6 -27 5 -28 -6 -7 -10 17 -17 20 -31 11 -14 -7 -22 -6 -32 8 -7
11 -11 23 -8 28 4 5 1 6 -6 2 -6 -4 -8 -12 -5 -18 5 -7 1 -9 -9 -5 -9 3 -17 1
-20 -6 -2 -7 -14 0 -30 18 -15 17 -27 24 -27 18 0 -17 -20 -16 -44 2 -10 7
-15 19 -11 25 6 9 10 9 16 -1 7 -12 9 -12 9 0 0 10 3 11 14 2 11 -9 17 -8 29
4 17 17 32 20 22 6 -3 -5 -1 -12 5 -16 5 -3 10 3 10 15 0 12 5 18 10 15 6 -4
8 -12 4 -18 -3 -7 1 -4 10 7 8 10 20 15 27 10 7 -4 10 -3 5 4 -5 9 5 15 35 21
3 0 6 -5 7 -11z m77 -8 c3 -5 1 -10 -4 -10 -6 0 -11 5 -11 10 0 6 2 10 4 10 3
0 8 -4 11 -10z m103 -40 c15 -20 18 -30 9 -30 -7 0 -18 14 -24 30 -6 17 -10
30 -9 30 1 0 12 -13 24 -30z m-414 12 c3 -5 -1 -9 -9 -9 -8 0 -12 4 -9 9 3 4
7 8 9 8 2 0 6 -4 9 -8z m36 -32 c12 -8 9 -10 -12 -10 -16 0 -28 5 -28 10 0 13
20 13 40 0z m445 -38 c-3 -3 -11 0 -18 7 -9 10 -8 11 6 5 10 -3 15 -9 12 -12z
m-125 -24 c0 -5 -4 -8 -10 -8 -5 0 -10 10 -10 23 0 18 2 19 10 7 5 -8 10 -18
10 -22z m-170 18 c0 -11 -19 -15 -25 -6 -3 5 1 10 9 10 9 0 16 -2 16 -4z m140
-6 c0 -5 -2 -10 -4 -10 -3 0 -8 5 -11 10 -3 6 -1 10 4 10 6 0 11 -4 11 -10z
m-255 -10 c3 -5 1 -10 -4 -10 -6 0 -11 5 -11 10 0 6 2 10 4 10 3 0 8 -4 11
-10z m80 0 c3 -5 1 -10 -4 -10 -6 0 -11 5 -11 10 0 6 2 10 4 10 3 0 8 -4 11
-10z m85 -10 c0 -5 -2 -10 -4 -10 -3 0 -8 5 -11 10 -3 6 -1 10 4 10 6 0 11 -4
11 -10z m-30 -4 c0 -11 -19 -15 -25 -6 -3 5 1 10 9 10 9 0 16 -2 16 -4z m-40
-16 c0 -5 -5 -10 -11 -10 -5 0 -7 5 -4 10 3 6 8 10 11 10 2 0 4 -4 4 -10z
m-38 -11 c-16 -15 -50 -19 -55 -7 -3 9 6 13 29 13 18 0 30 -3 26 -6z m-68 -8
c3 -5 -1 -11 -9 -15 -9 -3 -15 0 -15 9 0 16 16 20 24 6z m320 -31 c-6 -5 -24
21 -24 34 0 6 6 1 14 -10 8 -10 12 -21 10 -24z m36 19 c-13 -8 -11 -13 9 -29
13 -11 28 -20 33 -20 6 0 0 9 -13 20 -13 10 -18 19 -11 20 6 0 12 -4 12 -9 0
-5 14 -14 30 -21 36 -15 39 -29 5 -25 -17 1 -25 -3 -25 -13 0 -12 -3 -12 -15
-2 -12 10 -19 10 -27 2 -15 -15 18 -66 38 -58 8 3 14 1 14 -4 0 -6 4 -10 8
-10 4 0 6 17 4 38 -6 47 3 39 11 -10 6 -37 5 -38 -24 -38 -17 0 -32 6 -35 15
-4 8 -13 15 -21 15 -13 0 -13 -3 -3 -15 7 -8 8 -15 3 -15 -5 0 -17 14 -27 31
-15 25 -23 29 -42 25 -16 -4 -24 -2 -24 7 0 8 15 14 43 16 49 2 69 16 38 26
-12 3 -21 11 -21 16 0 5 12 2 27 -8 l26 -18 -17 28 c-15 22 -16 30 -6 42 7 9
15 13 19 10 3 -3 -1 -10 -9 -16z m-390 -4 c0 -8 -4 -15 -8 -15 -5 0 -9 7 -9
15 0 8 4 15 9 15 4 0 8 -7 8 -15z m260 -11 c0 -2 -7 -4 -15 -4 -8 0 -15 4 -15
10 0 5 7 7 15 4 8 -4 15 -8 15 -10z m-1650 -3 c0 -5 -10 -11 -22 -14 -22 -6
-22 -6 -4 8 23 17 26 18 26 6z m1605 1 c-9 -9 -85 -19 -85 -11 0 4 6 9 13 12
17 5 78 5 72 -1z m-100 -12 c3 -5 1 -10 -4 -10 -6 0 -11 5 -11 10 0 6 2 10 4
10 3 0 8 -4 11 -10z m-35 -16 c0 -8 -5 -12 -10 -9 -6 4 -8 11 -5 16 9 14 15
11 15 -7z m220 7 c0 -5 3 -18 6 -28 6 -16 5 -16 -9 2 -19 23 -21 35 -7 35 6 0
10 -4 10 -9z m2095 -1 c3 -5 1 -10 -4 -10 -6 0 -11 5 -11 10 0 6 2 10 4 10 3
0 8 -4 11 -10z m-2185 -10 c0 -5 -4 -10 -10 -10 -5 0 -10 5 -10 10 0 6 5 10
10 10 6 0 10 -4 10 -10z m30 0 c0 -5 -4 -10 -10 -10 -5 0 -10 5 -10 10 0 6 5
10 10 10 6 0 10 -4 10 -10z m36 -4 c15 -16 18 -26 6 -26 -4 0 -13 9 -20 20
-14 23 -7 26 14 6z m-226 0 c0 -3 -4 -8 -10 -11 -5 -3 -10 -1 -10 4 0 6 5 11
10 11 6 0 10 -2 10 -4z m90 -16 c-19 -13 -30 -13 -30 0 0 6 10 10 23 10 18 0
19 -2 7 -10z m-45 -10 c3 -5 1 -10 -4 -10 -6 0 -11 5 -11 10 0 6 2 10 4 10 3
0 8 -4 11 -10z m160 0 c3 -5 1 -10 -4 -10 -6 0 -11 5 -11 10 0 6 2 10 4 10 3
0 8 -4 11 -10z m-31 -9 c3 -5 -6 -8 -19 -8 -14 0 -25 3 -25 8 0 5 9 9 19 9 11
0 22 -4 25 -9z m-64 -11 c-8 -5 -19 -10 -25 -10 -5 0 -3 5 5 10 8 5 20 10 25
10 6 0 3 -5 -5 -10z m120 3 c0 -5 -12 -16 -26 -27 -22 -15 -28 -16 -35 -5 -6
10 -9 11 -9 2 0 -7 -5 -13 -11 -13 -5 0 -7 4 -4 10 4 6 -1 7 -12 3 -10 -3 -15
-2 -10 3 5 5 27 14 50 20 56 15 57 15 57 7z m-176 -24 c-32 -13 -50 -9 -24 5
14 7 29 10 34 8 5 -3 1 -9 -10 -13z m-1226 -14 c-3 -3 -9 2 -12 12 -6 14 -5
15 5 6 7 -7 10 -15 7 -18z m1447 15 c3 -5 1 -10 -4 -10 -6 0 -11 5 -11 10 0 6
2 10 4 10 3 0 8 -4 11 -10z m165 0 c0 -5 -2 -10 -4 -10 -3 0 -8 5 -11 10 -3 6
-1 10 4 10 6 0 11 -4 11 -10z m-490 -4 c0 -3 -4 -8 -10 -11 -5 -3 -10 -1 -10
4 0 6 5 11 10 11 6 0 10 -2 10 -4z m155 -6 c3 -5 0 -10 -7 -10 -7 0 -24 -3
-38 -6 l-25 -6 25 15 c31 19 37 20 45 7z m-135 -14 c0 -3 -4 -8 -10 -11 -5 -3
-10 -1 -10 4 0 6 5 11 10 11 6 0 10 -2 10 -4z m490 -23 c0 -13 -3 -13 -15 -3
-8 7 -12 16 -9 21 8 13 24 1 24 -18z m-1663 -15 c-3 -7 -5 -2 -5 12 0 14 2 19
5 13 2 -7 2 -19 0 -25z m1233 22 c0 -5 -4 -10 -10 -10 -5 0 -10 5 -10 10 0 6
5 10 10 10 6 0 10 -4 10 -10z m70 0 c0 -5 -4 -10 -10 -10 -5 0 -10 5 -10 10 0
6 5 10 10 10 6 0 10 -4 10 -10z m110 6 c0 -3 -4 -8 -10 -11 -5 -3 -10 -1 -10
4 0 6 5 11 10 11 6 0 10 -2 10 -4z m-30 -18 c0 -4 -9 -8 -21 -8 -11 0 -18 4
-15 8 3 5 12 9 21 9 8 0 15 -4 15 -9z m326 -3 c9 -8 11 -15 5 -15 -6 0 -8 -7
-4 -16 5 -14 3 -14 -16 -3 -25 17 -28 31 -3 22 15 -6 15 -5 3 10 -17 21 -5 22
15 2z m-506 1 c0 -2 -7 -6 -15 -10 -8 -3 -15 -1 -15 4 0 6 7 10 15 10 8 0 15
-2 15 -4z m70 -6 c0 -5 -4 -10 -10 -10 -5 0 -10 5 -10 10 0 6 5 10 10 10 6 0
10 -4 10 -10z m190 -10 c0 -5 -4 -10 -10 -10 -5 0 -10 5 -10 10 0 6 5 10 10
10 6 0 10 -4 10 -10z m100 0 c0 -5 -4 -10 -10 -10 -5 0 -10 5 -10 10 0 6 5 10
10 10 6 0 10 -4 10 -10z m-400 -10 c0 -5 -2 -10 -4 -10 -3 0 -8 5 -11 10 -3 6
-1 10 4 10 6 0 11 -4 11 -10z m218 -10 c-7 -11 -16 -20 -20 -20 -11 0 -10 9 5
25 18 21 29 18 15 -5z m2522 10 c-12 -8 -12 -10 5 -10 16 0 17 -2 6 -9 -9 -6
-19 -5 -26 2 -13 12 -2 27 20 27 6 0 3 -5 -5 -10z m-2570 -10 c0 -5 -5 -10
-11 -10 -5 0 -7 5 -4 10 3 6 8 10 11 10 2 0 4 -4 4 -10z m110 -25 c0 -5 -5 -3
-10 5 -5 8 -10 20 -10 25 0 6 5 3 10 -5 5 -8 10 -19 10 -25z m175 25 c3 -5 -1
-10 -10 -10 -9 0 -13 5 -10 10 3 6 8 10 10 10 2 0 7 -4 10 -10z m-40 -58 c8
-7 15 -17 15 -23 0 -16 -47 24 -65 56 l-17 30 25 -25 c14 -14 33 -31 42 -38z
m34 33 c6 3 11 -1 11 -9 0 -17 -26 -11 -47 10 -21 20 -15 29 6 10 11 -10 25
-15 30 -11z m-369 5 c0 -5 -2 -10 -4 -10 -3 0 -8 5 -11 10 -3 6 -1 10 4 10 6
0 11 -4 11 -10z m60 6 c0 -3 -4 -8 -10 -11 -5 -3 -10 -1 -10 4 0 6 5 11 10 11
6 0 10 -2 10 -4z m350 -6 c0 -5 -2 -10 -4 -10 -3 0 -8 5 -11 10 -3 6 -1 10 4
10 6 0 11 -4 11 -10z m2251 -39 c-6 -10 -7 -22 -3 -26 4 -5 2 -5 -5 -2 -9 6
-11 22 -4 45 1 1 6 2 11 2 7 0 7 -6 1 -19z m-2661 5 c0 -11 -19 -15 -25 -6 -3
5 1 10 9 10 9 0 16 -2 16 -4z m195 -6 c3 -6 -1 -7 -9 -4 -18 7 -21 14 -7 14 6
0 13 -4 16 -10z m80 -36 c10 -6 21 -17 24 -25 3 -9 -1 -8 -13 4 -10 9 -21 17
-26 17 -5 0 -14 10 -20 23 -9 19 -9 20 2 7 7 -8 22 -20 33 -26z m-315 16 c0
-5 -4 -10 -10 -10 -5 0 -10 5 -10 10 0 6 5 10 10 10 6 0 10 -4 10 -10z m292
-42 c21 -23 38 -46 38 -52 0 -5 -9 1 -19 13 -11 13 -25 20 -32 16 -8 -6 -8
-10 2 -16 8 -5 9 -9 3 -9 -6 0 -19 10 -30 21 -19 22 -19 22 5 14 17 -5 22 -4
19 6 -3 8 -14 13 -26 12 -11 -1 -26 4 -32 12 -8 10 -9 15 -2 15 6 0 14 -5 17
-10 4 -6 11 -7 17 -4 6 4 5 10 -3 15 -8 5 -10 9 -5 9 6 0 27 -19 48 -42z m428
16 c0 -17 -22 -14 -28 4 -2 7 3 12 12 12 9 0 16 -7 16 -16z m-110 -24 c0 -5
-7 -10 -16 -10 -8 0 -12 -4 -9 -10 8 -12 -5 -13 -24 -1 -11 7 -10 11 5 20 24
13 44 14 44 1z m-500 -4 c0 -3 -4 -8 -10 -11 -5 -3 -10 -1 -10 4 0 6 5 11 10
11 6 0 10 -2 10 -4z m-30 -16 c0 -5 -4 -10 -10 -10 -5 0 -10 5 -10 10 0 6 5
10 10 10 6 0 10 -4 10 -10z m45 -10 c3 -5 1 -10 -4 -10 -6 0 -11 5 -11 10 0 6
2 10 4 10 3 0 8 -4 11 -10z m-85 -10 c0 -5 -4 -10 -10 -10 -5 0 -10 5 -10 10
0 6 5 10 10 10 6 0 10 -4 10 -10z m490 -20 c0 -12 -14 -25 -40 -36 -32 -15
-39 -21 -34 -39 9 -35 -32 -73 -88 -81 -46 -6 -48 -5 -58 22 -6 16 -13 55 -14
87 -3 48 -1 57 11 53 8 -3 19 -6 24 -6 6 0 7 -4 4 -10 -3 -5 13 -3 36 5 50 18
62 19 53 3 -5 -8 -2 -9 10 -5 14 6 17 3 12 -8 -8 -21 13 -9 37 22 20 25 47 21
47 -7z m-440 10 c0 -5 -4 -10 -10 -10 -5 0 -10 5 -10 10 0 6 5 10 10 10 6 0
10 -4 10 -10z m65 -29 c-6 -5 -25 10 -25 20 0 5 6 4 14 -3 8 -7 12 -15 11 -17z
m-95 15 c0 -3 -4 -8 -10 -11 -5 -3 -10 -1 -10 4 0 6 5 11 10 11 6 0 10 -2 10
-4z m60 -21 c7 -8 9 -15 6 -15 -4 0 -14 7 -22 15 -9 8 -11 15 -6 15 5 0 15 -7
22 -15z"/>
<path d="M1563 1873 c9 -2 23 -2 30 0 6 3 -1 5 -18 5 -16 0 -22 -2 -12 -5z"/>
<path d="M1028 1533 c7 -3 16 -2 19 1 4 3 -2 6 -13 5 -11 0 -14 -3 -6 -6z"/>
<path d="M1078 1523 c7 -3 16 -2 19 1 4 3 -2 6 -13 5 -11 0 -14 -3 -6 -6z"/>
<path d="M1808 1430 c2 -22 9 -40 16 -40 6 0 22 -3 36 -5 23 -5 23 -4 -3 6
-15 6 -25 15 -21 20 3 5 1 9 -5 9 -5 0 -8 11 -6 25 1 14 -3 25 -9 25 -7 0 -10
-15 -8 -40z"/>
<path d="M963 1393 c9 -2 25 -2 35 0 9 3 1 5 -18 5 -19 0 -27 -2 -17 -5z"/>
<path d="M1816 1364 c-3 -9 -4 -20 -1 -24 7 -12 75 -33 82 -26 4 3 0 6 -8 6
-8 0 -23 14 -32 30 -20 34 -32 38 -41 14z"/>
<path d="M647 1292 c-27 -16 -36 -32 -18 -32 13 0 57 37 51 43 -3 3 -18 -2
-33 -11z"/>
<path d="M1095 1250 c17 -4 41 -8 55 -8 22 0 22 1 -5 8 -16 4 -41 8 -55 8 -22
0 -22 -1 5 -8z"/>
<path d="M1188 1233 c7 -3 16 -2 19 1 4 3 -2 6 -13 5 -11 0 -14 -3 -6 -6z"/>
<path d="M1108 1223 c6 -2 18 -2 25 0 6 3 1 5 -13 5 -14 0 -19 -2 -12 -5z"/>
<path d="M1018 1133 c6 -2 18 -2 25 0 6 3 1 5 -13 5 -14 0 -19 -2 -12 -5z"/>
<path d="M1058 1103 c7 -3 16 -2 19 1 4 3 -2 6 -13 5 -11 0 -14 -3 -6 -6z"/>
<path d="M710 439 c0 -19 8 -29 27 -38 26 -12 27 -12 12 6 -9 10 -21 27 -27
38 -11 19 -11 18 -12 -6z"/>
<path d="M778 383 c7 -3 16 -2 19 1 4 3 -2 6 -13 5 -11 0 -14 -3 -6 -6z"/>
<path d="M1580 942 c0 -5 7 -15 15 -22 8 -7 15 -9 15 -6 0 4 -7 14 -15 22 -8
9 -15 11 -15 6z"/>
<path d="M1671 924 c0 -11 3 -14 6 -6 3 7 2 16 -1 19 -3 4 -6 -2 -5 -13z"/>
<path d="M1020 2570 c-22 -42 -22 -43 -2 -38 13 4 23 0 26 -9 10 -26 6 -103
-5 -103 -5 0 -7 -4 -4 -10 3 -5 36 -10 73 -9 37 0 90 -7 117 -14 42 -12 50
-18 53 -41 3 -24 7 -26 50 -26 26 0 63 8 82 18 39 19 39 22 27 157 -3 33 -6
72 -6 88 -1 27 -1 27 -76 27 -85 0 -80 9 -75 -113 l2 -59 -29 4 c-28 3 -28 3
-31 86 l-3 82 -34 0 c-27 0 -35 -4 -35 -17 -1 -16 -2 -16 -16 2 -13 17 -16 18
-24 5 -7 -10 -10 -11 -10 -2 0 6 -6 12 -14 12 -8 0 -17 -6 -19 -12 -4 -10 -8
-10 -15 1 -8 11 -15 4 -32 -29z m126 -118 c-14 -13 -18 11 -10 55 l9 48 3 -49
c2 -26 1 -51 -2 -54z"/>
<path d="M1670 2552 l0 -59 30 5 c27 4 30 2 30 -23 0 -25 2 -26 31 -20 25 6
31 4 36 -14 3 -12 13 -21 23 -21 15 0 19 10 22 55 3 51 2 55 -19 55 -20 0 -23
5 -23 40 l0 40 -65 0 -65 0 0 -58z"/>
<path d="M2359 2533 c-1 -43 -2 -115 -3 -161 l-2 -82 35 -10 c19 -5 37 -7 39
-5 3 3 8 67 12 142 l8 138 -2 -142 c0 -78 2 -139 6 -135 5 6 13 281 9 320 -1
8 -18 12 -51 12 l-50 0 -1 -77z"/>
<path d="M3886 2588 c-5 -27 -49 -615 -48 -641 1 -15 -2 -16 -13 -7 -8 7 -20
10 -27 7 -8 -3 -3 -9 12 -15 19 -7 29 -6 43 6 11 10 21 12 25 6 6 -9 152 -21
152 -12 0 1 11 143 25 313 14 171 25 322 25 338 l0 27 -95 0 c-90 0 -95 -1
-99 -22z"/>
<path d="M1875 2540 c-3 -5 -1 -10 6 -10 8 0 10 -14 7 -45 -7 -58 8 -69 16
-12 9 59 -9 100 -29 67z"/>
<path d="M1956 2483 c-3 -3 -6 -14 -6 -23 0 -10 -6 -23 -14 -29 -14 -12 -11
-51 5 -51 9 0 22 19 25 35 1 6 5 22 9 36 6 26 -5 45 -19 32z"/>
<path d="M1480 2370 c0 -13 11 -13 30 0 12 8 11 10 -7 10 -13 0 -23 -4 -23
-10z"/>
<path d="M1485 2330 c-3 -5 -1 -10 4 -10 6 0 11 5 11 10 0 6 -2 10 -4 10 -3 0
-8 -4 -11 -10z"/>
<path d="M1785 2280 c-3 -5 -1 -10 4 -10 6 0 11 5 11 10 0 6 -2 10 -4 10 -3 0
-8 -4 -11 -10z"/>
<path d="M2090 2224 c-13 -15 -6 -17 24 -5 17 6 17 8 3 14 -8 3 -21 -1 -27 -9z"/>
<path d="M4056 2116 c-4 -65 -9 -132 -11 -150 l-5 -31 10 30 c14 42 28 204 20
240 -4 19 -9 -14 -14 -89z"/>
<path d="M2420 2164 c0 -17 25 -17 65 0 l30 13 -47 0 c-35 1 -48 -3 -48 -13z"/>
<path d="M2380 2154 c0 -8 5 -12 10 -9 6 3 10 10 10 16 0 5 -4 9 -10 9 -5 0
-10 -7 -10 -16z"/>
<path d="M426 2051 c-3 -5 4 -11 16 -14 25 -7 33 -3 23 12 -8 13 -32 14 -39 2z"/>
<path d="M3118 2013 c7 -3 16 -2 19 1 4 3 -2 6 -13 5 -11 0 -14 -3 -6 -6z"/>
<path d="M3427 1930 c7 -28 70 -30 106 -5 17 12 15 13 -15 10 -18 -2 -41 -6
-50 -10 -12 -5 -20 -2 -24 9 -9 23 -23 20 -17 -4z"/>
<path d="M3932 1844 c-13 -9 -34 -13 -51 -11 -19 3 -31 0 -35 -9 -3 -8 -12
-11 -23 -7 -16 6 -16 5 -4 -10 16 -20 49 -15 99 15 18 11 45 24 60 28 l27 8
-25 1 c-14 1 -36 -6 -48 -15z"/>
<path d="M55 1809 c-10 -15 3 -25 16 -12 7 7 7 13 1 17 -6 3 -14 1 -17 -5z"/>
<path d="M4240 1748 c0 -23 -16 -23 -29 0 -8 13 -10 14 -11 2 0 -32 17 -43 55
-37 46 7 52 13 39 34 -15 24 -54 24 -54 1z"/>
</g>
</svg>
